<svg width="16" height="14" viewBox="0 0 16 14" fill="none" xmlns="http://www.w3.org/2000/svg">
<path d="M11.5008 6.58301C12.9117 6.58301 14.0563 5.46322 14.0563 4.08301C14.0563 2.7028 12.9117 1.58301 11.5008 1.58301C10.5558 1.58301 9.72787 2.08561 9.28597 2.83301H7.88574C8.41283 1.37728 9.83169 0.333008 11.5008 0.333008C13.6171 0.333008 15.3341 2.0127 15.3341 4.08301C15.3341 6.15332 13.6171 7.83301 11.5008 7.83301C10.7634 7.83301 10.0766 7.62988 9.49095 7.27832L10.4333 6.35645C10.7581 6.50228 11.1201 6.58301 11.5008 6.58301ZM0.0487059 4.05176C0.147201 3.81738 0.38146 3.66634 0.639678 3.66634H10.436C10.6942 3.66634 10.9284 3.81738 11.0269 4.05176C11.1254 4.28613 11.0722 4.55436 10.8885 4.73405L6.17671 9.34342V12.4163H7.88042C8.23447 12.4163 8.51931 12.695 8.51931 13.0413C8.51931 13.3877 8.23447 13.6663 7.88042 13.6663H3.19523C2.84118 13.6663 2.55634 13.3877 2.55634 13.0413C2.55634 12.695 2.84118 12.4163 3.19523 12.4163H4.89894V9.34082L0.187132 4.73405C0.00345124 4.55436 -0.0497895 4.28613 0.0487059 4.05176Z" fill="#D83603"/>
</svg>
