<svg width="16" height="13" viewBox="0 0 16 13" fill="none" xmlns="http://www.w3.org/2000/svg">
<path d="M1.65677 5L6.52395 10.1953L4.1802 5H1.65677ZM8.00051 11.0312L10.7271 5H5.27395L8.00051 11.0312ZM4.20364 4L5.79739 1H3.75052L1.50052 4H4.20364ZM9.47707 10.1953L14.3443 5H11.8208L9.47707 10.1953ZM5.33645 4H10.6646L9.07082 1H6.9302L5.33645 4ZM11.7974 4H14.5005L12.2505 1H10.2036L11.7974 4ZM12.8989 0.203125L15.8989 4.20312C15.9719 4.29688 16.0057 4.40495 16.0005 4.52734C15.9953 4.64974 15.951 4.75521 15.8677 4.84375L8.3677 12.8438C8.27395 12.9479 8.15155 13 8.00051 13C7.84947 13 7.72708 12.9479 7.63333 12.8438L0.133333 4.84375C0.05 4.75521 0.00572916 4.64974 0.000520833 4.52734C-0.0046875 4.40495 0.0291666 4.29688 0.102083 4.20312L3.10208 0.203125C3.19583 0.0677083 3.32864 0 3.50052 0H12.5005C12.6724 0 12.8052 0.0677083 12.8989 0.203125Z" fill="white"/>
</svg>
