<svg width="121" height="20" viewBox="0 0 121 20" fill="none" xmlns="http://www.w3.org/2000/svg">
<path d="M18.4807 15.1913C18.0098 15.8114 17.4538 15.3634 17.2234 15.2209L15.7231 14.2618C15.7231 14.2618 15.8748 16.1631 15.8745 16.17C15.86 16.4687 15.7611 16.936 15.1019 17.0139C14.2767 17.1114 14.1692 16.1662 14.1706 16.0871L13.9505 13.156L11.0236 11.3235V14.8054C11.0236 14.8054 13.3709 16.7682 13.3776 16.7738C13.6308 16.9881 13.9228 17.4511 13.4476 18.0606C12.9536 18.6942 12.3228 18.2116 12.1734 18.0826C12.1696 18.0792 11.0236 16.9221 11.0236 16.9221V19.2174C11.0236 19.4732 10.9618 20.0043 10.1971 20C9.46122 20 9.44135 19.469 9.44135 19.1196V16.8444C9.44135 16.8444 8.01138 18.1212 8.00614 18.1262C7.88687 18.2412 7.30124 18.6023 6.85405 18.018C6.51238 17.5714 6.67778 17.056 6.86241 16.9186C6.86968 16.9133 9.29301 14.8778 9.29301 14.8778V11.3479L6.47569 13.1931L6.00908 16.3083C5.95795 16.6864 5.744 17.1521 5.14195 17.0241C4.37336 16.8606 4.50657 16.2404 4.53006 16.0112L4.77031 14.166L2.86384 15.4029C2.56187 15.5693 2.17432 15.6205 1.81747 15.0799C1.32173 14.3288 1.94103 13.9326 2.08586 13.8408L3.87001 12.7401L2.10465 12.1214C2.09169 12.1168 1.37948 11.9414 1.74014 10.9749C2.029 10.2007 2.92273 10.559 2.93049 10.5615C2.9344 10.5628 5.68936 11.7342 5.68936 11.7342L8.63588 10.0007L5.65846 8.2679L2.81054 9.64753C2.78171 9.66272 2.07167 10.0511 1.67947 9.09989C1.43946 8.51789 1.85584 8.13317 2.10524 8.01633L3.97147 7.21401L1.70622 6.05674C1.58478 5.96835 1.08033 5.72896 1.49424 4.96655C1.84506 4.32037 2.42194 4.56251 2.83699 4.763C2.84065 4.76479 4.64067 5.72427 4.64067 5.72427C4.64067 5.72427 4.47572 4.28841 4.45327 4.006C4.40798 3.43674 4.687 3.08735 5.22007 3.04478C6.01125 2.98152 6.19791 3.50413 6.2169 3.79786C6.22362 3.90175 6.4043 6.7673 6.4043 6.7673L9.24356 8.31388V5.29663L6.94751 3.39341C7.11058 3.52814 6.14975 2.87197 6.74127 2.05426C7.29303 1.29154 8.10923 2.17094 8.15497 2.21942L9.24356 3.25129V0.860231C9.24356 0.779637 9.21063 0 10.0627 0C10.9147 0 10.8753 0.784378 10.8753 0.85024V3.20648C10.8753 3.20648 12.2347 1.88491 12.2386 1.8818C12.2482 1.87405 12.7526 1.34675 13.3319 1.97636C13.8644 2.55495 13.4273 2.99136 13.2328 3.22631C13.2285 3.23151 11.0236 5.26273 11.0236 5.26273V8.41961L13.8638 6.83984L14.136 3.74235C14.136 3.74235 14.0853 2.8888 14.9946 2.93794C15.9039 2.98708 15.7794 3.76875 15.7684 3.83497L15.6482 5.7235L17.5419 4.3793C17.5475 4.37527 18.1909 3.95936 18.6684 4.75413C19.0126 5.32706 18.7419 5.75572 18.5592 5.89698C18.5546 5.9006 16.3762 7.20295 16.3762 7.20295L18.2099 7.991C18.2099 7.991 18.9162 8.27534 18.4119 9.20465C17.9734 9.89604 17.3424 9.53646 17.1837 9.47105C16.8641 9.33928 15.0061 8.48608 14.6108 8.3044L11.8704 10.0127L14.6805 11.6259L17.371 10.4945C17.428 10.4622 18.2734 10.0936 18.5551 10.8599C18.8573 11.6822 18.1252 12.0251 18.0677 12.0465L16.4956 12.7634C16.4956 12.7634 18.2411 13.9205 18.2447 13.9234C18.2595 13.9351 19.0357 14.4604 18.4807 15.1913Z" fill="#C4C4C4"/>
<path d="M43.4807 15.1913C43.0098 15.8114 42.4538 15.3634 42.2234 15.2209L40.7231 14.2618C40.7231 14.2618 40.8748 16.1631 40.8745 16.17C40.86 16.4687 40.7611 16.936 40.1019 17.0139C39.2767 17.1114 39.1692 16.1662 39.1706 16.0871L38.9505 13.156L36.0236 11.3235V14.8054C36.0236 14.8054 38.3709 16.7682 38.3776 16.7738C38.6308 16.9881 38.9228 17.4511 38.4476 18.0606C37.9536 18.6942 37.3228 18.2116 37.1734 18.0826C37.1696 18.0792 36.0236 16.9221 36.0236 16.9221V19.2174C36.0236 19.4732 35.9618 20.0043 35.1971 20C34.4612 20 34.4413 19.469 34.4413 19.1196V16.8444C34.4413 16.8444 33.0114 18.1212 33.0061 18.1262C32.8869 18.2412 32.3012 18.6023 31.8541 18.018C31.5124 17.5714 31.6778 17.056 31.8624 16.9186C31.8697 16.9133 34.293 14.8778 34.293 14.8778V11.3479L31.4757 13.1931L31.0091 16.3083C30.9579 16.6864 30.744 17.1521 30.1419 17.0241C29.3734 16.8606 29.5066 16.2404 29.5301 16.0112L29.7703 14.166L27.8638 15.4029C27.5619 15.5693 27.1743 15.6205 26.8175 15.0799C26.3217 14.3288 26.941 13.9326 27.0859 13.8408L28.87 12.7401L27.1046 12.1214C27.0917 12.1168 26.3795 11.9414 26.7401 10.9749C27.029 10.2007 27.9227 10.559 27.9305 10.5615C27.9344 10.5628 30.6894 11.7342 30.6894 11.7342L33.6359 10.0007L30.6585 8.2679L27.8105 9.64753C27.7817 9.66272 27.0717 10.0511 26.6795 9.09989C26.4395 8.51789 26.8558 8.13317 27.1052 8.01633L28.9715 7.21401L26.7062 6.05674C26.5848 5.96835 26.0803 5.72896 26.4942 4.96655C26.8451 4.32037 27.4219 4.56251 27.837 4.763C27.8406 4.76479 29.6407 5.72427 29.6407 5.72427C29.6407 5.72427 29.4757 4.28841 29.4533 4.006C29.408 3.43674 29.687 3.08735 30.2201 3.04478C31.0113 2.98152 31.1979 3.50413 31.2169 3.79786C31.2236 3.90175 31.4043 6.7673 31.4043 6.7673L34.2436 8.31388V5.29663L31.9475 3.39341C32.1106 3.52814 31.1497 2.87197 31.7413 2.05426C32.293 1.29154 33.1092 2.17094 33.155 2.21942L34.2436 3.25129V0.860231C34.2436 0.779637 34.2106 0 35.0627 0C35.9147 0 35.8753 0.784378 35.8753 0.85024V3.20648C35.8753 3.20648 37.2347 1.88491 37.2386 1.8818C37.2482 1.87405 37.7526 1.34675 38.3319 1.97636C38.8644 2.55495 38.4273 2.99136 38.2328 3.22631C38.2285 3.23151 36.0236 5.26273 36.0236 5.26273V8.41961L38.8638 6.83984L39.136 3.74235C39.136 3.74235 39.0853 2.8888 39.9946 2.93794C40.9039 2.98708 40.7794 3.76875 40.7684 3.83497L40.6482 5.7235L42.5419 4.3793C42.5475 4.37527 43.1909 3.95936 43.6684 4.75413C44.0126 5.32706 43.7419 5.75572 43.5592 5.89698C43.5546 5.9006 41.3762 7.20295 41.3762 7.20295L43.2099 7.991C43.2099 7.991 43.9162 8.27534 43.4119 9.20465C42.9734 9.89604 42.3424 9.53646 42.1837 9.47105C41.8641 9.33928 40.0061 8.48608 39.6108 8.3044L36.8704 10.0127L39.6805 11.6259L42.371 10.4945C42.428 10.4622 43.2734 10.0936 43.5551 10.8599C43.8573 11.6822 43.1252 12.0251 43.0677 12.0465L41.4956 12.7634C41.4956 12.7634 43.2411 13.9205 43.2447 13.9234C43.2595 13.9351 44.0357 14.4604 43.4807 15.1913Z" fill="#C4C4C4"/>
<path d="M68.4807 15.1913C68.0098 15.8114 67.4538 15.3634 67.2234 15.2209L65.7231 14.2618C65.7231 14.2618 65.8748 16.1631 65.8745 16.17C65.86 16.4687 65.7611 16.936 65.1019 17.0139C64.2767 17.1114 64.1692 16.1662 64.1706 16.0871L63.9505 13.156L61.0236 11.3235V14.8054C61.0236 14.8054 63.3709 16.7682 63.3776 16.7738C63.6308 16.9881 63.9228 17.4511 63.4476 18.0606C62.9536 18.6942 62.3228 18.2116 62.1734 18.0826C62.1696 18.0792 61.0236 16.9221 61.0236 16.9221V19.2174C61.0236 19.4732 60.9618 20.0043 60.1971 20C59.4612 20 59.4413 19.469 59.4413 19.1196V16.8444C59.4413 16.8444 58.0114 18.1212 58.0061 18.1262C57.8869 18.2412 57.3012 18.6023 56.8541 18.018C56.5124 17.5714 56.6778 17.056 56.8624 16.9186C56.8697 16.9133 59.293 14.8778 59.293 14.8778V11.3479L56.4757 13.1931L56.0091 16.3083C55.9579 16.6864 55.744 17.1521 55.1419 17.0241C54.3734 16.8606 54.5066 16.2404 54.5301 16.0112L54.7703 14.166L52.8638 15.4029C52.5619 15.5693 52.1743 15.6205 51.8175 15.0799C51.3217 14.3288 51.941 13.9326 52.0859 13.8408L53.87 12.7401L52.1046 12.1214C52.0917 12.1168 51.3795 11.9414 51.7401 10.9749C52.029 10.2007 52.9227 10.559 52.9305 10.5615C52.9344 10.5628 55.6894 11.7342 55.6894 11.7342L58.6359 10.0007L55.6585 8.2679L52.8105 9.64753C52.7817 9.66272 52.0717 10.0511 51.6795 9.09989C51.4395 8.51789 51.8558 8.13317 52.1052 8.01633L53.9715 7.21401L51.7062 6.05674C51.5848 5.96835 51.0803 5.72896 51.4942 4.96655C51.8451 4.32037 52.4219 4.56251 52.837 4.763C52.8406 4.76479 54.6407 5.72427 54.6407 5.72427C54.6407 5.72427 54.4757 4.28841 54.4533 4.006C54.408 3.43674 54.687 3.08735 55.2201 3.04478C56.0113 2.98152 56.1979 3.50413 56.2169 3.79786C56.2236 3.90175 56.4043 6.7673 56.4043 6.7673L59.2436 8.31388V5.29663L56.9475 3.39341C57.1106 3.52814 56.1497 2.87197 56.7413 2.05426C57.293 1.29154 58.1092 2.17094 58.155 2.21942L59.2436 3.25129V0.860231C59.2436 0.779637 59.2106 0 60.0627 0C60.9147 0 60.8753 0.784378 60.8753 0.85024V3.20648C60.8753 3.20648 62.2347 1.88491 62.2386 1.8818C62.2482 1.87405 62.7526 1.34675 63.3319 1.97636C63.8644 2.55495 63.4273 2.99136 63.2328 3.22631C63.2285 3.23151 61.0236 5.26273 61.0236 5.26273V8.41961L63.8638 6.83984L64.136 3.74235C64.136 3.74235 64.0853 2.8888 64.9946 2.93794C65.9039 2.98708 65.7794 3.76875 65.7684 3.83497L65.6482 5.7235L67.5419 4.3793C67.5475 4.37527 68.1909 3.95936 68.6684 4.75413C69.0126 5.32706 68.7419 5.75572 68.5592 5.89698C68.5546 5.9006 66.3762 7.20295 66.3762 7.20295L68.2099 7.991C68.2099 7.991 68.9162 8.27534 68.4119 9.20465C67.9734 9.89604 67.3424 9.53646 67.1837 9.47105C66.8641 9.33928 65.0061 8.48608 64.6108 8.3044L61.8704 10.0127L64.6805 11.6259L67.371 10.4945C67.428 10.4622 68.2734 10.0936 68.5551 10.8599C68.8573 11.6822 68.1252 12.0251 68.0677 12.0465L66.4956 12.7634C66.4956 12.7634 68.2411 13.9205 68.2447 13.9234C68.2595 13.9351 69.0357 14.4604 68.4807 15.1913Z" fill="#C4C4C4"/>
<path d="M93.4807 15.1913C93.0098 15.8114 92.4538 15.3634 92.2234 15.2209L90.7231 14.2618C90.7231 14.2618 90.8748 16.1631 90.8745 16.17C90.86 16.4687 90.7611 16.936 90.1019 17.0139C89.2767 17.1114 89.1692 16.1662 89.1706 16.0871L88.9505 13.156L86.0236 11.3235V14.8054C86.0236 14.8054 88.3709 16.7682 88.3776 16.7738C88.6308 16.9881 88.9228 17.4511 88.4476 18.0606C87.9536 18.6942 87.3228 18.2116 87.1734 18.0826C87.1696 18.0792 86.0236 16.9221 86.0236 16.9221V19.2174C86.0236 19.4732 85.9618 20.0043 85.1971 20C84.4612 20 84.4413 19.469 84.4413 19.1196V16.8444C84.4413 16.8444 83.0114 18.1212 83.0061 18.1262C82.8869 18.2412 82.3012 18.6023 81.8541 18.018C81.5124 17.5714 81.6778 17.056 81.8624 16.9186C81.8697 16.9133 84.293 14.8778 84.293 14.8778V11.3479L81.4757 13.1931L81.0091 16.3083C80.9579 16.6864 80.744 17.1521 80.1419 17.0241C79.3734 16.8606 79.5066 16.2404 79.5301 16.0112L79.7703 14.166L77.8638 15.4029C77.5619 15.5693 77.1743 15.6205 76.8175 15.0799C76.3217 14.3288 76.941 13.9326 77.0859 13.8408L78.87 12.7401L77.1046 12.1214C77.0917 12.1168 76.3795 11.9414 76.7401 10.9749C77.029 10.2007 77.9227 10.559 77.9305 10.5615C77.9344 10.5628 80.6894 11.7342 80.6894 11.7342L83.6359 10.0007L80.6585 8.2679L77.8105 9.64753C77.7817 9.66272 77.0717 10.0511 76.6795 9.09989C76.4395 8.51789 76.8558 8.13317 77.1052 8.01633L78.9715 7.21401L76.7062 6.05674C76.5848 5.96835 76.0803 5.72896 76.4942 4.96655C76.8451 4.32037 77.4219 4.56251 77.837 4.763C77.8406 4.76479 79.6407 5.72427 79.6407 5.72427C79.6407 5.72427 79.4757 4.28841 79.4533 4.006C79.408 3.43674 79.687 3.08735 80.2201 3.04478C81.0113 2.98152 81.1979 3.50413 81.2169 3.79786C81.2236 3.90175 81.4043 6.7673 81.4043 6.7673L84.2436 8.31388V5.29663L81.9475 3.39341C82.1106 3.52814 81.1497 2.87197 81.7413 2.05426C82.293 1.29154 83.1092 2.17094 83.155 2.21942L84.2436 3.25129V0.860231C84.2436 0.779637 84.2106 0 85.0627 0C85.9147 0 85.8753 0.784378 85.8753 0.85024V3.20648C85.8753 3.20648 87.2347 1.88491 87.2386 1.8818C87.2482 1.87405 87.7526 1.34675 88.3319 1.97636C88.8644 2.55495 88.4273 2.99136 88.2328 3.22631C88.2285 3.23151 86.0236 5.26273 86.0236 5.26273V8.41961L88.8638 6.83984L89.136 3.74235C89.136 3.74235 89.0853 2.8888 89.9946 2.93794C90.9039 2.98708 90.7794 3.76875 90.7684 3.83497L90.6482 5.7235L92.5419 4.3793C92.5475 4.37527 93.1909 3.95936 93.6684 4.75413C94.0126 5.32706 93.7419 5.75572 93.5592 5.89698C93.5546 5.9006 91.3762 7.20295 91.3762 7.20295L93.2099 7.991C93.2099 7.991 93.9162 8.27534 93.4119 9.20465C92.9734 9.89604 92.3424 9.53646 92.1837 9.47105C91.8641 9.33928 90.0061 8.48608 89.6108 8.3044L86.8704 10.0127L89.6805 11.6259L92.371 10.4945C92.428 10.4622 93.2734 10.0936 93.5551 10.8599C93.8573 11.6822 93.1252 12.0251 93.0677 12.0465L91.4956 12.7634C91.4956 12.7634 93.2411 13.9205 93.2447 13.9234C93.2595 13.9351 94.0357 14.4604 93.4807 15.1913Z" fill="#C4C4C4"/>
<path d="M118.481 15.1913C118.01 15.8114 117.454 15.3634 117.223 15.2209L115.723 14.2618C115.723 14.2618 115.875 16.1631 115.874 16.17C115.86 16.4687 115.761 16.936 115.102 17.0139C114.277 17.1114 114.169 16.1662 114.171 16.0871L113.95 13.156L111.024 11.3235V14.8054C111.024 14.8054 113.371 16.7682 113.378 16.7738C113.631 16.9881 113.923 17.4511 113.448 18.0606C112.954 18.6942 112.323 18.2116 112.173 18.0826C112.17 18.0792 111.024 16.9221 111.024 16.9221V19.2174C111.024 19.4732 110.962 20.0043 110.197 20C109.461 20 109.441 19.469 109.441 19.1196V16.8444C109.441 16.8444 108.011 18.1212 108.006 18.1262C107.887 18.2412 107.301 18.6023 106.854 18.018C106.512 17.5714 106.678 17.056 106.862 16.9186C106.87 16.9133 109.293 14.8778 109.293 14.8778V11.3479L106.476 13.1931L106.009 16.3083C105.958 16.6864 105.744 17.1521 105.142 17.0241C104.373 16.8606 104.507 16.2404 104.53 16.0112L104.77 14.166L102.864 15.4029C102.562 15.5693 102.174 15.6205 101.817 15.0799C101.322 14.3288 101.941 13.9326 102.086 13.8408L103.87 12.7401L102.105 12.1214C102.092 12.1168 101.379 11.9414 101.74 10.9749C102.029 10.2007 102.923 10.559 102.93 10.5615C102.934 10.5628 105.689 11.7342 105.689 11.7342L108.636 10.0007L105.658 8.2679L102.811 9.64753C102.782 9.66272 102.072 10.0511 101.679 9.09989C101.439 8.51789 101.856 8.13317 102.105 8.01633L103.971 7.21401L101.706 6.05674C101.585 5.96835 101.08 5.72896 101.494 4.96655C101.845 4.32037 102.422 4.56251 102.837 4.763C102.841 4.76479 104.641 5.72427 104.641 5.72427C104.641 5.72427 104.476 4.28841 104.453 4.006C104.408 3.43674 104.687 3.08735 105.22 3.04478C106.011 2.98152 106.198 3.50413 106.217 3.79786C106.224 3.90175 106.404 6.7673 106.404 6.7673L109.244 8.31388V5.29663L106.948 3.39341C107.111 3.52814 106.15 2.87197 106.741 2.05426C107.293 1.29154 108.109 2.17094 108.155 2.21942L109.244 3.25129V0.860231C109.244 0.779637 109.211 0 110.063 0C110.915 0 110.875 0.784378 110.875 0.85024V3.20648C110.875 3.20648 112.235 1.88491 112.239 1.8818C112.248 1.87405 112.753 1.34675 113.332 1.97636C113.864 2.55495 113.427 2.99136 113.233 3.22631C113.229 3.23151 111.024 5.26273 111.024 5.26273V8.41961L113.864 6.83984L114.136 3.74235C114.136 3.74235 114.085 2.8888 114.995 2.93794C115.904 2.98708 115.779 3.76875 115.768 3.83497L115.648 5.7235L117.542 4.3793C117.548 4.37527 118.191 3.95936 118.668 4.75413C119.013 5.32706 118.742 5.75572 118.559 5.89698C118.555 5.9006 116.376 7.20295 116.376 7.20295L118.21 7.991C118.21 7.991 118.916 8.27534 118.412 9.20465C117.973 9.89604 117.342 9.53646 117.184 9.47105C116.864 9.33928 115.006 8.48608 114.611 8.3044L111.87 10.0127L114.681 11.6259L117.371 10.4945C117.428 10.4622 118.273 10.0936 118.555 10.8599C118.857 11.6822 118.125 12.0251 118.068 12.0465L116.496 12.7634C116.496 12.7634 118.241 13.9205 118.245 13.9234C118.26 13.9351 119.036 14.4604 118.481 15.1913Z" fill="#C4C4C4"/>
</svg>
