<svg width="120" height="20" viewBox="0 0 120 20" fill="none" xmlns="http://www.w3.org/2000/svg">
<path d="M17.9807 15.1913C17.5098 15.8114 16.9538 15.3634 16.7234 15.2209L15.2231 14.2618C15.2231 14.2618 15.3748 16.1631 15.3745 16.17C15.36 16.4687 15.2611 16.936 14.6019 17.0139C13.7767 17.1114 13.6692 16.1662 13.6706 16.0871L13.4505 13.156L10.5236 11.3235V14.8054C10.5236 14.8054 12.8709 16.7682 12.8776 16.7738C13.1308 16.9881 13.4228 17.4511 12.9476 18.0606C12.4536 18.6942 11.8228 18.2116 11.6734 18.0826C11.6696 18.0792 10.5236 16.9221 10.5236 16.9221V19.2174C10.5236 19.4732 10.4618 20.0043 9.69707 20C8.96122 20 8.94135 19.469 8.94135 19.1196V16.8444C8.94135 16.8444 7.51138 18.1212 7.50614 18.1262C7.38687 18.2412 6.80124 18.6023 6.35405 18.018C6.01238 17.5714 6.17778 17.056 6.36241 16.9186C6.36968 16.9133 8.79301 14.8778 8.79301 14.8778V11.3479L5.97569 13.1931L5.50908 16.3083C5.45795 16.6864 5.244 17.1521 4.64195 17.0241C3.87336 16.8606 4.00657 16.2404 4.03006 16.0112L4.27031 14.166L2.36384 15.4029C2.06187 15.5693 1.67432 15.6205 1.31747 15.0799C0.821727 14.3288 1.44103 13.9326 1.58586 13.8408L3.37001 12.7401L1.60465 12.1214C1.59169 12.1168 0.879479 11.9414 1.24014 10.9749C1.529 10.2007 2.42273 10.559 2.43049 10.5615C2.4344 10.5628 5.18936 11.7342 5.18936 11.7342L8.13588 10.0007L5.15846 8.2679L2.31054 9.64753C2.28171 9.66272 1.57167 10.0511 1.17947 9.09989C0.939457 8.51789 1.35584 8.13317 1.60524 8.01633L3.47147 7.21401L1.20622 6.05674C1.08478 5.96835 0.580333 5.72896 0.994243 4.96655C1.34506 4.32037 1.92194 4.56251 2.33699 4.763C2.34065 4.76479 4.14067 5.72427 4.14067 5.72427C4.14067 5.72427 3.97572 4.28841 3.95327 4.006C3.90798 3.43674 4.187 3.08735 4.72007 3.04478C5.51125 2.98152 5.69791 3.50413 5.7169 3.79786C5.72362 3.90175 5.9043 6.7673 5.9043 6.7673L8.74356 8.31388V5.29663L6.44751 3.39341C6.61058 3.52814 5.64975 2.87197 6.24127 2.05426C6.79303 1.29154 7.60923 2.17094 7.65497 2.21942L8.74356 3.25129V0.860231C8.74356 0.779637 8.71063 0 9.56268 0C10.4147 0 10.3753 0.784378 10.3753 0.85024V3.20648C10.3753 3.20648 11.7347 1.88491 11.7386 1.8818C11.7482 1.87405 12.2526 1.34675 12.8319 1.97636C13.3644 2.55495 12.9273 2.99136 12.7328 3.22631C12.7285 3.23151 10.5236 5.26273 10.5236 5.26273V8.41961L13.3638 6.83984L13.636 3.74235C13.636 3.74235 13.5853 2.8888 14.4946 2.93794C15.4039 2.98708 15.2794 3.76875 15.2684 3.83497L15.1482 5.7235L17.0419 4.3793C17.0475 4.37527 17.6909 3.95936 18.1684 4.75413C18.5126 5.32706 18.2419 5.75572 18.0592 5.89698C18.0546 5.9006 15.8762 7.20295 15.8762 7.20295L17.7099 7.991C17.7099 7.991 18.4162 8.27534 17.9119 9.20465C17.4734 9.89604 16.8424 9.53646 16.6837 9.47105C16.3641 9.33928 14.5061 8.48608 14.1108 8.3044L11.3704 10.0127L14.1805 11.6259L16.871 10.4945C16.928 10.4622 17.7734 10.0936 18.0551 10.8599C18.3573 11.6822 17.6252 12.0251 17.5677 12.0465L15.9956 12.7634C15.9956 12.7634 17.7411 13.9205 17.7447 13.9234C17.7595 13.9351 18.5357 14.4604 17.9807 15.1913Z" fill="#D83603"/>
<path d="M42.9807 15.1913C42.5098 15.8114 41.9538 15.3634 41.7234 15.2209L40.2231 14.2618C40.2231 14.2618 40.3748 16.1631 40.3745 16.17C40.36 16.4687 40.2611 16.936 39.6019 17.0139C38.7767 17.1114 38.6692 16.1662 38.6706 16.0871L38.4505 13.156L35.5236 11.3235V14.8054C35.5236 14.8054 37.8709 16.7682 37.8776 16.7738C38.1308 16.9881 38.4228 17.4511 37.9476 18.0606C37.4536 18.6942 36.8228 18.2116 36.6734 18.0826C36.6696 18.0792 35.5236 16.9221 35.5236 16.9221V19.2174C35.5236 19.4732 35.4618 20.0043 34.6971 20C33.9612 20 33.9413 19.469 33.9413 19.1196V16.8444C33.9413 16.8444 32.5114 18.1212 32.5061 18.1262C32.3869 18.2412 31.8012 18.6023 31.3541 18.018C31.0124 17.5714 31.1778 17.056 31.3624 16.9186C31.3697 16.9133 33.793 14.8778 33.793 14.8778V11.3479L30.9757 13.1931L30.5091 16.3083C30.4579 16.6864 30.244 17.1521 29.6419 17.0241C28.8734 16.8606 29.0066 16.2404 29.0301 16.0112L29.2703 14.166L27.3638 15.4029C27.0619 15.5693 26.6743 15.6205 26.3175 15.0799C25.8217 14.3288 26.441 13.9326 26.5859 13.8408L28.37 12.7401L26.6046 12.1214C26.5917 12.1168 25.8795 11.9414 26.2401 10.9749C26.529 10.2007 27.4227 10.559 27.4305 10.5615C27.4344 10.5628 30.1894 11.7342 30.1894 11.7342L33.1359 10.0007L30.1585 8.2679L27.3105 9.64753C27.2817 9.66272 26.5717 10.0511 26.1795 9.09989C25.9395 8.51789 26.3558 8.13317 26.6052 8.01633L28.4715 7.21401L26.2062 6.05674C26.0848 5.96835 25.5803 5.72896 25.9942 4.96655C26.3451 4.32037 26.9219 4.56251 27.337 4.763C27.3406 4.76479 29.1407 5.72427 29.1407 5.72427C29.1407 5.72427 28.9757 4.28841 28.9533 4.006C28.908 3.43674 29.187 3.08735 29.7201 3.04478C30.5113 2.98152 30.6979 3.50413 30.7169 3.79786C30.7236 3.90175 30.9043 6.7673 30.9043 6.7673L33.7436 8.31388V5.29663L31.4475 3.39341C31.6106 3.52814 30.6497 2.87197 31.2413 2.05426C31.793 1.29154 32.6092 2.17094 32.655 2.21942L33.7436 3.25129V0.860231C33.7436 0.779637 33.7106 0 34.5627 0C35.4147 0 35.3753 0.784378 35.3753 0.85024V3.20648C35.3753 3.20648 36.7347 1.88491 36.7386 1.8818C36.7482 1.87405 37.2526 1.34675 37.8319 1.97636C38.3644 2.55495 37.9273 2.99136 37.7328 3.22631C37.7285 3.23151 35.5236 5.26273 35.5236 5.26273V8.41961L38.3638 6.83984L38.636 3.74235C38.636 3.74235 38.5853 2.8888 39.4946 2.93794C40.4039 2.98708 40.2794 3.76875 40.2684 3.83497L40.1482 5.7235L42.0419 4.3793C42.0475 4.37527 42.6909 3.95936 43.1684 4.75413C43.5126 5.32706 43.2419 5.75572 43.0592 5.89698C43.0546 5.9006 40.8762 7.20295 40.8762 7.20295L42.7099 7.991C42.7099 7.991 43.4162 8.27534 42.9119 9.20465C42.4734 9.89604 41.8424 9.53646 41.6837 9.47105C41.3641 9.33928 39.5061 8.48608 39.1108 8.3044L36.3704 10.0127L39.1805 11.6259L41.871 10.4945C41.928 10.4622 42.7734 10.0936 43.0551 10.8599C43.3573 11.6822 42.6252 12.0251 42.5677 12.0465L40.9956 12.7634C40.9956 12.7634 42.7411 13.9205 42.7447 13.9234C42.7595 13.9351 43.5357 14.4604 42.9807 15.1913Z" fill="#D83603"/>
<path d="M67.9807 15.1913C67.5098 15.8114 66.9538 15.3634 66.7234 15.2209L65.2231 14.2618C65.2231 14.2618 65.3748 16.1631 65.3745 16.17C65.36 16.4687 65.2611 16.936 64.6019 17.0139C63.7767 17.1114 63.6692 16.1662 63.6706 16.0871L63.4505 13.156L60.5236 11.3235V14.8054C60.5236 14.8054 62.8709 16.7682 62.8776 16.7738C63.1308 16.9881 63.4228 17.4511 62.9476 18.0606C62.4536 18.6942 61.8228 18.2116 61.6734 18.0826C61.6696 18.0792 60.5236 16.9221 60.5236 16.9221V19.2174C60.5236 19.4732 60.4618 20.0043 59.6971 20C58.9612 20 58.9413 19.469 58.9413 19.1196V16.8444C58.9413 16.8444 57.5114 18.1212 57.5061 18.1262C57.3869 18.2412 56.8012 18.6023 56.3541 18.018C56.0124 17.5714 56.1778 17.056 56.3624 16.9186C56.3697 16.9133 58.793 14.8778 58.793 14.8778V11.3479L55.9757 13.1931L55.5091 16.3083C55.4579 16.6864 55.244 17.1521 54.6419 17.0241C53.8734 16.8606 54.0066 16.2404 54.0301 16.0112L54.2703 14.166L52.3638 15.4029C52.0619 15.5693 51.6743 15.6205 51.3175 15.0799C50.8217 14.3288 51.441 13.9326 51.5859 13.8408L53.37 12.7401L51.6046 12.1214C51.5917 12.1168 50.8795 11.9414 51.2401 10.9749C51.529 10.2007 52.4227 10.559 52.4305 10.5615C52.4344 10.5628 55.1894 11.7342 55.1894 11.7342L58.1359 10.0007L55.1585 8.2679L52.3105 9.64753C52.2817 9.66272 51.5717 10.0511 51.1795 9.09989C50.9395 8.51789 51.3558 8.13317 51.6052 8.01633L53.4715 7.21401L51.2062 6.05674C51.0848 5.96835 50.5803 5.72896 50.9942 4.96655C51.3451 4.32037 51.9219 4.56251 52.337 4.763C52.3406 4.76479 54.1407 5.72427 54.1407 5.72427C54.1407 5.72427 53.9757 4.28841 53.9533 4.006C53.908 3.43674 54.187 3.08735 54.7201 3.04478C55.5113 2.98152 55.6979 3.50413 55.7169 3.79786C55.7236 3.90175 55.9043 6.7673 55.9043 6.7673L58.7436 8.31388V5.29663L56.4475 3.39341C56.6106 3.52814 55.6497 2.87197 56.2413 2.05426C56.793 1.29154 57.6092 2.17094 57.655 2.21942L58.7436 3.25129V0.860231C58.7436 0.779637 58.7106 0 59.5627 0C60.4147 0 60.3753 0.784378 60.3753 0.85024V3.20648C60.3753 3.20648 61.7347 1.88491 61.7386 1.8818C61.7482 1.87405 62.2526 1.34675 62.8319 1.97636C63.3644 2.55495 62.9273 2.99136 62.7328 3.22631C62.7285 3.23151 60.5236 5.26273 60.5236 5.26273V8.41961L63.3638 6.83984L63.636 3.74235C63.636 3.74235 63.5853 2.8888 64.4946 2.93794C65.4039 2.98708 65.2794 3.76875 65.2684 3.83497L65.1482 5.7235L67.0419 4.3793C67.0475 4.37527 67.6909 3.95936 68.1684 4.75413C68.5126 5.32706 68.2419 5.75572 68.0592 5.89698C68.0546 5.9006 65.8762 7.20295 65.8762 7.20295L67.7099 7.991C67.7099 7.991 68.4162 8.27534 67.9119 9.20465C67.4734 9.89604 66.8424 9.53646 66.6837 9.47105C66.3641 9.33928 64.5061 8.48608 64.1108 8.3044L61.3704 10.0127L64.1805 11.6259L66.871 10.4945C66.928 10.4622 67.7734 10.0936 68.0551 10.8599C68.3573 11.6822 67.6252 12.0251 67.5677 12.0465L65.9956 12.7634C65.9956 12.7634 67.7411 13.9205 67.7447 13.9234C67.7595 13.9351 68.5357 14.4604 67.9807 15.1913Z" fill="#D83603"/>
<path d="M92.9807 15.1913C92.5098 15.8114 91.9538 15.3634 91.7234 15.2209L90.2231 14.2618C90.2231 14.2618 90.3748 16.1631 90.3745 16.17C90.36 16.4687 90.2611 16.936 89.6019 17.0139C88.7767 17.1114 88.6692 16.1662 88.6706 16.0871L88.4505 13.156L85.5236 11.3235V14.8054C85.5236 14.8054 87.8709 16.7682 87.8776 16.7738C88.1308 16.9881 88.4228 17.4511 87.9476 18.0606C87.4536 18.6942 86.8228 18.2116 86.6734 18.0826C86.6696 18.0792 85.5236 16.9221 85.5236 16.9221V19.2174C85.5236 19.4732 85.4618 20.0043 84.6971 20C83.9612 20 83.9413 19.469 83.9413 19.1196V16.8444C83.9413 16.8444 82.5114 18.1212 82.5061 18.1262C82.3869 18.2412 81.8012 18.6023 81.3541 18.018C81.0124 17.5714 81.1778 17.056 81.3624 16.9186C81.3697 16.9133 83.793 14.8778 83.793 14.8778V11.3479L80.9757 13.1931L80.5091 16.3083C80.4579 16.6864 80.244 17.1521 79.6419 17.0241C78.8734 16.8606 79.0066 16.2404 79.0301 16.0112L79.2703 14.166L77.3638 15.4029C77.0619 15.5693 76.6743 15.6205 76.3175 15.0799C75.8217 14.3288 76.441 13.9326 76.5859 13.8408L78.37 12.7401L76.6046 12.1214C76.5917 12.1168 75.8795 11.9414 76.2401 10.9749C76.529 10.2007 77.4227 10.559 77.4305 10.5615C77.4344 10.5628 80.1894 11.7342 80.1894 11.7342L83.1359 10.0007L80.1585 8.2679L77.3105 9.64753C77.2817 9.66272 76.5717 10.0511 76.1795 9.09989C75.9395 8.51789 76.3558 8.13317 76.6052 8.01633L78.4715 7.21401L76.2062 6.05674C76.0848 5.96835 75.5803 5.72896 75.9942 4.96655C76.3451 4.32037 76.9219 4.56251 77.337 4.763C77.3406 4.76479 79.1407 5.72427 79.1407 5.72427C79.1407 5.72427 78.9757 4.28841 78.9533 4.006C78.908 3.43674 79.187 3.08735 79.7201 3.04478C80.5113 2.98152 80.6979 3.50413 80.7169 3.79786C80.7236 3.90175 80.9043 6.7673 80.9043 6.7673L83.7436 8.31388V5.29663L81.4475 3.39341C81.6106 3.52814 80.6497 2.87197 81.2413 2.05426C81.793 1.29154 82.6092 2.17094 82.655 2.21942L83.7436 3.25129V0.860231C83.7436 0.779637 83.7106 0 84.5627 0C85.4147 0 85.3753 0.784378 85.3753 0.85024V3.20648C85.3753 3.20648 86.7347 1.88491 86.7386 1.8818C86.7482 1.87405 87.2526 1.34675 87.8319 1.97636C88.3644 2.55495 87.9273 2.99136 87.7328 3.22631C87.7285 3.23151 85.5236 5.26273 85.5236 5.26273V8.41961L88.3638 6.83984L88.636 3.74235C88.636 3.74235 88.5853 2.8888 89.4946 2.93794C90.4039 2.98708 90.2794 3.76875 90.2684 3.83497L90.1482 5.7235L92.0419 4.3793C92.0475 4.37527 92.6909 3.95936 93.1684 4.75413C93.5126 5.32706 93.2419 5.75572 93.0592 5.89698C93.0546 5.9006 90.8762 7.20295 90.8762 7.20295L92.7099 7.991C92.7099 7.991 93.4162 8.27534 92.9119 9.20465C92.4734 9.89604 91.8424 9.53646 91.6837 9.47105C91.3641 9.33928 89.5061 8.48608 89.1108 8.3044L86.3704 10.0127L89.1805 11.6259L91.871 10.4945C91.928 10.4622 92.7734 10.0936 93.0551 10.8599C93.3573 11.6822 92.6252 12.0251 92.5677 12.0465L90.9956 12.7634C90.9956 12.7634 92.7411 13.9205 92.7447 13.9234C92.7595 13.9351 93.5357 14.4604 92.9807 15.1913Z" fill="#D83603"/>
<path d="M117.981 15.1913C117.51 15.8114 116.954 15.3634 116.723 15.2209L115.223 14.2618C115.223 14.2618 115.375 16.1631 115.374 16.17C115.36 16.4687 115.261 16.936 114.602 17.0139C113.777 17.1114 113.669 16.1662 113.671 16.0871L113.45 13.156L110.524 11.3235V14.8054C110.524 14.8054 112.871 16.7682 112.878 16.7738C113.131 16.9881 113.423 17.4511 112.948 18.0606C112.454 18.6942 111.823 18.2116 111.673 18.0826C111.67 18.0792 110.524 16.9221 110.524 16.9221V19.2174C110.524 19.4732 110.462 20.0043 109.697 20C108.961 20 108.941 19.469 108.941 19.1196V16.8444C108.941 16.8444 107.511 18.1212 107.506 18.1262C107.387 18.2412 106.801 18.6023 106.354 18.018C106.012 17.5714 106.178 17.056 106.362 16.9186C106.37 16.9133 108.793 14.8778 108.793 14.8778V11.3479L105.976 13.1931L105.509 16.3083C105.458 16.6864 105.244 17.1521 104.642 17.0241C103.873 16.8606 104.007 16.2404 104.03 16.0112L104.27 14.166L102.364 15.4029C102.062 15.5693 101.674 15.6205 101.317 15.0799C100.822 14.3288 101.441 13.9326 101.586 13.8408L103.37 12.7401L101.605 12.1214C101.592 12.1168 100.879 11.9414 101.24 10.9749C101.529 10.2007 102.423 10.559 102.43 10.5615C102.434 10.5628 105.189 11.7342 105.189 11.7342L108.136 10.0007L105.158 8.2679L102.311 9.64753C102.282 9.66272 101.572 10.0511 101.179 9.09989C100.939 8.51789 101.356 8.13317 101.605 8.01633L103.471 7.21401L101.206 6.05674C101.085 5.96835 100.58 5.72896 100.994 4.96655C101.345 4.32037 101.922 4.56251 102.337 4.763C102.341 4.76479 104.141 5.72427 104.141 5.72427C104.141 5.72427 103.976 4.28841 103.953 4.006C103.908 3.43674 104.187 3.08735 104.72 3.04478C105.511 2.98152 105.698 3.50413 105.717 3.79786C105.724 3.90175 105.904 6.7673 105.904 6.7673L108.744 8.31388V5.29663L106.448 3.39341C106.611 3.52814 105.65 2.87197 106.241 2.05426C106.793 1.29154 107.609 2.17094 107.655 2.21942L108.744 3.25129V0.860231C108.744 0.779637 108.711 0 109.563 0C110.415 0 110.375 0.784378 110.375 0.85024V3.20648C110.375 3.20648 111.735 1.88491 111.739 1.8818C111.748 1.87405 112.253 1.34675 112.832 1.97636C113.364 2.55495 112.927 2.99136 112.733 3.22631C112.729 3.23151 110.524 5.26273 110.524 5.26273V8.41961L113.364 6.83984L113.636 3.74235C113.636 3.74235 113.585 2.8888 114.495 2.93794C115.404 2.98708 115.279 3.76875 115.268 3.83497L115.148 5.7235L117.042 4.3793C117.048 4.37527 117.691 3.95936 118.168 4.75413C118.513 5.32706 118.242 5.75572 118.059 5.89698C118.055 5.9006 115.876 7.20295 115.876 7.20295L117.71 7.991C117.71 7.991 118.416 8.27534 117.912 9.20465C117.473 9.89604 116.842 9.53646 116.684 9.47105C116.364 9.33928 114.506 8.48608 114.111 8.3044L111.37 10.0127L114.181 11.6259L116.871 10.4945C116.928 10.4622 117.773 10.0936 118.055 10.8599C118.357 11.6822 117.625 12.0251 117.568 12.0465L115.996 12.7634C115.996 12.7634 117.741 13.9205 117.745 13.9234C117.76 13.9351 118.536 14.4604 117.981 15.1913Z" fill="#D83603"/>
</svg>
